<svg width="24" height="24" viewBox="0 0 24 24" fill="none" xmlns="http://www.w3.org/2000/svg">
    <path fill-rule="evenodd" clip-rule="evenodd"
          d="M12 10C10.8954 10 9.99999 10.8954 9.99999 12C9.99999 13.1046 10.8954 14 12 14C13.1046 14 14 13.1046 14 12C14 10.8954 13.1046 10 12 10ZM7.99999 12C7.99999 9.79086 9.79086 8 12 8C14.2091 8 16 9.79086 16 12C16 14.2091 14.2091 16 12 16C9.79086 16 7.99999 14.2091 7.99999 12Z"
          fill="black"/>
    <path fill-rule="evenodd" clip-rule="evenodd"
          d="M9.11724 0H14.8827L15.3383 3.64311C16.1374 3.96441 16.8862 4.39893 17.5616 4.9333L20.9506 3.5035L23.8334 8.4964L20.9057 10.7132C20.9675 11.1384 20.9991 11.5677 21 11.9979L20 12L21 12.0021C20.9991 12.4323 20.9675 12.8616 20.9057 13.2868L23.8334 15.5036L20.9506 20.4965L17.5616 19.0667C16.8862 19.6011 16.1374 20.0356 15.3383 20.3569L14.8827 24H9.11724L8.66172 20.3569C7.86262 20.0356 7.11383 19.6011 6.43839 19.0667L3.04937 20.4965L0.166626 15.5036L3.09363 13.2873C2.96884 12.4337 2.96884 11.5663 3.09363 10.7127L0.166626 8.49641L3.04937 3.5035L6.43839 4.9333C7.11383 4.39893 7.86262 3.96441 8.66172 3.64311L9.11724 0ZM19 12C18.9988 11.4962 18.9436 10.9939 18.8354 10.5019L18.6977 9.87638L21.2186 7.9676L20.1014 6.0325L17.1803 7.26485L16.7072 6.83111C15.9627 6.14851 15.0789 5.63547 14.117 5.32734L13.5089 5.13259L13.1172 2H10.8827L10.4911 5.13259L9.88303 5.32734C8.92106 5.63547 8.03733 6.14851 7.29276 6.83111L6.81965 7.26485L3.89862 6.0325L2.78136 7.9676L5.30338 9.87723L5.1642 10.5038C4.94532 11.4893 4.94532 12.5107 5.1642 13.4962L5.30338 14.1228L2.78136 16.0324L3.89862 17.9675L6.81965 16.7351L7.29276 17.1689C8.03733 17.8515 8.92106 18.3645 9.88303 18.6727L10.4911 18.8674L10.8827 22H13.1172L13.5089 18.8674L14.117 18.6727C15.0789 18.3645 15.9627 17.8515 16.7072 17.1689L17.1803 16.7351L20.1014 17.9675L21.2186 16.0324L18.6977 14.1236L18.8354 13.4981C18.9436 13.0061 18.9988 12.5038 19 12Z"
          fill="black"/>
</svg>
