<svg width="21" height="24" viewBox="0 0 21 24" fill="none" xmlns="http://www.w3.org/2000/svg">
    <path d="M19.7606 18.7038C19.3983 19.5423 18.9693 20.3141 18.4724 21.0237C17.7949 21.9911 17.2403 22.6607 16.8128 23.0325C16.1502 23.6429 15.4402 23.9555 14.68 23.9732C14.1342 23.9732 13.476 23.8177 12.7098 23.5021C11.9411 23.1881 11.2347 23.0325 10.5888 23.0325C9.91138 23.0325 9.18486 23.1881 8.40774 23.5021C7.62944 23.8177 7.00246 23.9821 6.52308 23.9984C5.79404 24.0295 5.06736 23.7081 4.34202 23.0325C3.87906 22.6281 3.3 21.9348 2.60631 20.9526C1.86203 19.9037 1.25013 18.6875 0.770754 17.3008C0.257362 15.8031 0 14.3528 0 12.9487C0 11.3403 0.346995 9.95307 1.04202 8.79059C1.58825 7.85684 2.31492 7.12027 3.22442 6.57955C4.13391 6.03882 5.11662 5.76328 6.17491 5.74565C6.75397 5.74565 7.51334 5.92505 8.457 6.27763C9.39799 6.6314 10.0022 6.8108 10.2671 6.8108C10.4652 6.8108 11.1364 6.60103 12.2742 6.18282C13.3503 5.79498 14.2584 5.63439 15.0024 5.69765C17.0184 5.86061 18.533 6.65658 19.5403 8.09061C17.7373 9.1848 16.8454 10.7173 16.8631 12.6834C16.8794 14.2147 17.434 15.4891 18.5241 16.5009C19.0181 16.9705 19.5698 17.3334 20.1837 17.5912C20.0506 17.9779 19.91 18.3482 19.7606 18.7038ZM15.137 0.480625C15.137 1.6809 14.6992 2.80159 13.8265 3.83889C12.7734 5.07204 11.4996 5.78461 10.1183 5.67217C10.1007 5.52817 10.0905 5.37662 10.0905 5.21737C10.0905 4.06511 10.5913 2.83196 11.4807 1.82369C11.9247 1.31319 12.4894 0.888716 13.1743 0.550103C13.8576 0.216543 14.504 0.0320773 15.1119 0.000488281C15.1296 0.160946 15.137 0.321414 15.137 0.480609V0.480625Z"
          fill="black"/>
</svg>
