<svg width="24" height="24" viewBox="0 0 24 24" fill="none" xmlns="http://www.w3.org/2000/svg">
    <g clip-path="url(#clip0_73_73)">
        <path d="M23.771 16.0804V15.8029H23.696L23.6092 15.9933L23.5229 15.8029H23.4477V16.0804H23.501V15.8713L23.5821 16.0518H23.6373L23.7184 15.8709V16.0804H23.7712H23.771ZM23.2952 16.0804V15.8504H23.3912V15.8036H23.1459V15.8504H23.2419V16.0804H23.2947H23.2952Z"
              fill="#F79410"/>
        <path d="M15.2472 17.7463H8.75696V6.08234H15.2473L15.2472 17.7463Z" fill="#FF5F00"/>
        <path d="M9.168 11.918C9.168 9.55201 10.2758 7.44433 12.001 6.08605C10.6951 5.05638 9.08002 4.49755 7.41708 4.50001C3.32064 4.50001 0 7.82113 0 11.918C0 16.015 3.32064 19.3361 7.41708 19.3361C9.08007 19.3386 10.6952 18.7797 12.0011 17.7501C10.2761 16.392 9.168 14.2842 9.168 11.918Z"
              fill="#EB001B"/>
        <path d="M24.0032 11.918C24.0032 16.015 20.6825 19.3361 16.5861 19.3361C14.9229 19.3385 13.3076 18.7797 12.0015 17.75C13.7271 16.3918 14.8349 14.2842 14.8349 11.918C14.8349 9.55189 13.7271 7.44433 12.0015 6.08605C13.3075 5.05642 14.9228 4.49759 16.586 4.50001C20.6824 4.50001 24.0031 7.82113 24.0031 11.918"
              fill="#F79E1B"/>
    </g>
    <defs>
        <clipPath id="clip0_73_73">
            <rect width="24" height="24" fill="white"/>
        </clipPath>
    </defs>
</svg>
