<svg width="24" height="20" viewBox="0 0 24 20" fill="none" xmlns="http://www.w3.org/2000/svg">
<path d="M24 2.3088C23.117 2.70048 22.168 2.96508 21.1721 3.08413C22.1886 2.47476 22.9694 1.50984 23.337 0.360003C22.3855 0.924363 21.3318 1.33404 20.2102 1.55484C19.3121 0.59784 18.0324 0 16.6161 0C13.8969 0 11.6922 2.20452 11.6922 4.92373C11.6922 5.30965 11.7357 5.68549 11.8197 6.04585C7.72749 5.84053 4.09941 3.88021 1.67084 0.901201C1.247 1.6284 1.00412 2.47417 1.00412 3.37657C1.00412 5.08489 1.8734 6.59197 3.1946 7.47493C2.38748 7.44937 1.62824 7.22785 0.964401 6.85909C0.963841 6.87961 0.963841 6.90025 0.963841 6.92101C0.963841 9.30661 2.66113 11.2966 4.91365 11.7492C4.50049 11.8618 4.06549 11.9219 3.61644 11.9219C3.29916 11.9219 2.99077 11.8909 2.69005 11.8336C3.31669 13.7897 5.13505 15.2133 7.28977 15.2529C5.60461 16.5736 3.48157 17.3608 1.17456 17.3608C0.777121 17.3608 0.385201 17.3374 0 17.2919C2.17908 18.6891 4.76725 19.5042 7.54789 19.5042C16.6047 19.5042 21.5574 12.0015 21.5574 5.49457C21.5574 5.28109 21.5526 5.06881 21.5432 4.85749C22.5051 4.1634 23.3398 3.29628 23.9999 2.3088H24Z" fill="#2AA9E0"/>
</svg>
