<svg width="35" height="27" viewBox="0 0 35 27" fill="none" xmlns="http://www.w3.org/2000/svg">
<path d="M29.1823 2.79827C27.0153 1.80394 24.6915 1.07136 22.2617 0.651784C22.2175 0.643687 22.1733 0.663923 22.1505 0.704398C21.8516 1.23595 21.5206 1.92941 21.2888 2.47446C18.6755 2.08322 16.0756 2.08322 13.5159 2.47446C13.284 1.91729 12.9409 1.23595 12.6407 0.704398C12.6179 0.665274 12.5737 0.645037 12.5295 0.651784C10.1011 1.07002 7.77728 1.8026 5.60889 2.79827C5.59012 2.80637 5.57403 2.81987 5.56335 2.8374C1.15554 9.42257 -0.0519436 15.8459 0.540407 22.1896C0.543088 22.2206 0.56051 22.2503 0.584633 22.2692C3.49278 24.4048 6.30982 25.7014 9.07454 26.5608C9.11879 26.5743 9.16567 26.5581 9.19383 26.5216C9.84783 25.6285 10.4308 24.6868 10.9307 23.6965C10.9602 23.6385 10.932 23.5697 10.8717 23.5468C9.947 23.196 9.0665 22.7683 8.21952 22.2827C8.15252 22.2435 8.14716 22.1477 8.20879 22.1018C8.38703 21.9683 8.56531 21.8293 8.7355 21.689C8.76629 21.6634 8.8092 21.658 8.8454 21.6742C14.4097 24.2146 20.4337 24.2146 25.9324 21.6742C25.9686 21.6566 26.0115 21.662 26.0436 21.6877C26.2139 21.828 26.3921 21.9683 26.5717 22.1018C26.6333 22.1477 26.6293 22.2435 26.5623 22.2827C25.7153 22.7778 24.8348 23.196 23.9088 23.5454C23.8485 23.5684 23.8217 23.6385 23.8512 23.6965C24.3618 24.6855 24.9447 25.6272 25.5867 26.5203C25.6135 26.5581 25.6617 26.5743 25.7059 26.5608C28.4841 25.7014 31.3011 24.4048 34.2092 22.2692C34.2347 22.2503 34.2508 22.2219 34.2535 22.1909C34.9624 14.8569 33.0661 8.48628 29.2265 2.83874C29.2171 2.81987 29.2011 2.80637 29.1823 2.79827ZM11.7616 18.3269C10.0864 18.3269 8.706 16.7889 8.706 14.9001C8.706 13.0113 10.0596 11.4733 11.7616 11.4733C13.477 11.4733 14.844 13.0248 14.8171 14.9001C14.8171 16.7889 13.4636 18.3269 11.7616 18.3269ZM23.0591 18.3269C21.3839 18.3269 20.0036 16.7889 20.0036 14.9001C20.0036 13.0113 21.3571 11.4733 23.0591 11.4733C24.7745 11.4733 26.1415 13.0248 26.1147 14.9001C26.1147 16.7889 24.7745 18.3269 23.0591 18.3269Z" fill="white"/>
</svg>
