<svg width="24" height="24" viewBox="0 0 24 24" fill="none" xmlns="http://www.w3.org/2000/svg">
<g clip-path="url(#clip0_36_954)">
<path d="M5.31891 14.5036L4.4835 17.6223L1.43011 17.6869C0.517594 15.9943 0 14.0579 0 12.0001C0 10.0102 0.483938 8.13368 1.34175 6.48138H1.34241L4.06078 6.97976L5.25159 9.68182C5.00236 10.4084 4.86652 11.1884 4.86652 12.0001C4.86661 12.8809 5.02617 13.7249 5.31891 14.5036Z" fill="#FBBB00"/>
<path d="M23.7902 9.758C23.9281 10.4839 23.9999 11.2336 23.9999 11.9997C23.9999 12.8589 23.9096 13.6969 23.7375 14.5053C23.1534 17.256 21.627 19.658 19.5125 21.3578L19.5118 21.3571L16.0879 21.1824L15.6033 18.1573C17.0064 17.3345 18.1029 16.0468 18.6805 14.5053H12.2637V9.758H18.7741H23.7902Z" fill="#518EF8"/>
<path d="M19.5114 21.3574L19.512 21.3581C17.4556 23.011 14.8432 24.0001 11.9995 24.0001C7.4296 24.0001 3.45642 21.4458 1.4296 17.6869L5.31839 14.5036C6.33179 17.2082 8.9408 19.1335 11.9995 19.1335C13.3142 19.1335 14.5459 18.7781 15.6028 18.1576L19.5114 21.3574Z" fill="#28B446"/>
<path d="M19.6594 2.76263L15.772 5.94525C14.6781 5.26153 13.3851 4.86656 11.9999 4.86656C8.87196 4.86656 6.21414 6.88017 5.25152 9.68175L1.34229 6.48131H1.34163C3.33879 2.63077 7.36207 0 11.9999 0C14.9115 0 17.5812 1.03716 19.6594 2.76263Z" fill="#F14336"/>
</g>
<defs>
<clipPath id="clip0_36_954">
<rect width="24" height="24" fill="white"/>
</clipPath>
</defs>
</svg>
