<svg width="172" height="40" viewBox="0 0 172 40" fill="none" xmlns="http://www.w3.org/2000/svg">
<path d="M43.0541 23.5386L35.4806 31.14C34.839 31.784 34.8396 32.8309 35.4819 33.474L41.2694 39.2698C42.2558 40.2434 43.8683 40.2434 44.8546 39.2698L62.5934 21.7616C63.5798 20.7881 63.5798 19.1964 62.5934 18.2229L44.8546 0.730152C43.8683 -0.243384 42.2558 -0.243384 41.2694 0.730152L35.4819 6.52597C34.8396 7.16919 34.839 8.21601 35.4806 8.85994L43.0541 16.4614C45.0269 18.4084 45.0269 21.5916 43.0541 23.5386Z" fill="#0A6E5C"/>
<path d="M20.279 23.5386L27.8525 31.14C28.4941 31.784 28.4935 32.8309 27.8513 33.474L22.0637 39.2698C21.0774 40.2434 19.4649 40.2434 18.4785 39.2698L0.739765 21.7616C-0.246588 20.7881 -0.246588 19.1964 0.739765 18.2229L18.4785 0.730152C19.4649 -0.243384 21.0774 -0.243384 22.0637 0.730152L27.8513 6.52597C28.4935 7.16919 28.4941 8.21601 27.8525 8.85994L20.279 16.4614C18.3062 18.4084 18.3062 21.5916 20.279 23.5386Z" fill="#21BF73"/>
<path d="M22.266 21.4462C21.4672 20.6475 21.4672 19.3525 22.266 18.5537L30.2207 10.5991C31.0194 9.80031 32.3144 9.80031 33.1132 10.5991L41.0678 18.5537C41.8665 19.3525 41.8665 20.6475 41.0678 21.4462L33.1132 29.4009C32.3144 30.1997 31.0194 30.1997 30.2207 29.4009L22.266 21.4462Z" fill="#21BF73"/>
<path d="M97.2561 32.0004H91.6033L88.4858 23.8451C88.2346 23.2027 87.8463 22.7554 87.3209 22.5031C86.8186 22.2508 86.1791 22.1245 85.4026 22.1245H81.9424V32.0004H76.6666V7.5H87.5266C90.3586 7.5 92.5054 8.11939 93.9672 9.35817C95.4288 10.597 96.1597 12.3748 96.1597 14.6919C96.1597 16.3206 95.7258 17.72 94.8579 18.89C94.0128 20.0599 92.7909 20.8973 91.1922 21.4019C92.6311 21.7001 93.6703 22.6981 94.3098 24.3956L97.2561 32.0004ZM86.7386 18.0296C88.2688 18.0296 89.3879 17.7774 90.0959 17.2726C90.8039 16.745 91.1579 15.9306 91.1579 14.8295C91.1579 13.7284 90.8039 12.9254 90.0959 12.4207C89.3879 11.8931 88.2688 11.6293 86.7386 11.6293H81.8738V18.0296H86.7386Z" fill="#22272F"/>
<path d="M117.983 14.5543V32.0004H112.878V29.4196C112.353 30.3142 111.611 31.014 110.651 31.5186C109.692 32.0234 108.607 32.2758 107.397 32.2758C105.889 32.2758 104.553 31.9086 103.389 31.1746C102.247 30.4405 101.344 29.3966 100.682 28.0433C100.043 26.6668 99.7229 25.0839 99.7229 23.2945C99.7229 21.5051 100.043 19.9108 100.682 18.5114C101.344 17.112 102.258 16.0339 103.423 15.2769C104.588 14.4969 105.912 14.1069 107.397 14.1069C108.607 14.1069 109.692 14.3706 110.651 14.8983C111.611 15.4259 112.353 16.1371 112.878 17.0317V14.5543H117.983ZM108.904 28.3185C110.183 28.3185 111.165 27.8826 111.85 27.0109C112.536 26.1391 112.878 24.8774 112.878 23.2258C112.878 21.574 112.536 20.3122 111.85 19.4405C111.165 18.5459 110.183 18.0985 108.904 18.0985C107.625 18.0985 106.632 18.5572 105.924 19.4749C105.216 20.3925 104.862 21.6657 104.862 23.2945C104.862 24.9232 105.204 26.1735 105.889 27.0452C106.597 27.8941 107.602 28.3185 108.904 28.3185Z" fill="#22272F"/>
<path d="M143.398 14.1069C145.386 14.1069 146.858 14.7148 147.818 15.9306C148.8 17.1235 149.291 18.9587 149.291 21.4364V32.0004H144.118V21.6084C144.118 20.3925 143.923 19.5207 143.536 18.9931C143.147 18.4426 142.508 18.1674 141.617 18.1674C140.567 18.1674 139.756 18.5344 139.185 19.2685C138.613 20.0025 138.328 21.0349 138.328 22.3654V32.0004H133.155V21.6084C133.155 20.4155 132.95 19.5437 132.538 18.9931C132.151 18.4426 131.522 18.1674 130.655 18.1674C129.603 18.1674 128.782 18.5344 128.187 19.2685C127.617 20.0025 127.331 21.0349 127.331 22.3654V32.0004H122.158V19.5438C122.158 17.6856 122.067 16.0224 121.884 14.5543H126.748L127.057 17.1694C127.582 16.183 128.313 15.4259 129.25 14.8983C130.208 14.3706 131.306 14.1069 132.538 14.1069C135.12 14.1069 136.832 15.185 137.677 17.3415C138.248 16.355 139.036 15.575 140.041 15.0015C141.068 14.4051 142.188 14.1069 143.398 14.1069Z" fill="#22272F"/>
<path d="M163.992 14.1069C165.477 14.1069 166.802 14.4969 167.967 15.2769C169.131 16.0339 170.033 17.112 170.673 18.5114C171.336 19.9108 171.666 21.5051 171.666 23.2945C171.666 25.0839 171.347 26.6668 170.707 28.0433C170.068 29.3966 169.166 30.4405 168.001 31.1746C166.836 31.9086 165.5 32.2758 163.992 32.2758C162.782 32.2758 161.697 32.0234 160.738 31.5186C159.778 31.014 159.048 30.3142 158.546 29.4196V40H153.372V19.5438C153.372 17.6856 153.281 16.0224 153.098 14.5543H157.963L158.306 17.4448C158.762 16.4124 159.493 15.598 160.498 15.0015C161.526 14.4051 162.691 14.1069 163.992 14.1069ZM162.52 28.3185C163.798 28.3185 164.781 27.8941 165.466 27.0452C166.151 26.1735 166.493 24.9232 166.493 23.2945C166.493 21.6657 166.14 20.3925 165.431 19.4749C164.746 18.5572 163.776 18.0985 162.52 18.0985C161.241 18.0985 160.247 18.5459 159.538 19.4405C158.853 20.3122 158.511 21.574 158.511 23.2258C158.511 24.8774 158.853 26.1391 159.538 27.0109C160.247 27.8826 161.241 28.3185 162.52 28.3185Z" fill="#22272F"/>
</svg>
