<svg width="24" height="18" viewBox="0 0 24 18" fill="none" xmlns="http://www.w3.org/2000/svg">
    <path fill-rule="evenodd" clip-rule="evenodd"
          d="M0.411847 2.80875L1.58815 1.19125L12.0005 8.76353L22.4118 1.19209L23.5882 2.8096L12.0005 11.2365L0.411847 2.80875Z"
          fill="black"/>
    <path fill-rule="evenodd" clip-rule="evenodd"
          d="M3 2C2.33373 2 2 2.4557 2 2.77778V15.2222C2 15.5443 2.33373 16 3 16H21C21.6663 16 22 15.5443 22 15.2222V2.77778C22 2.4557 21.6663 2 21 2H3ZM0 2.77778C0 1.13618 1.45713 0 3 0H21C22.5429 0 24 1.13618 24 2.77778V15.2222C24 16.8638 22.5429 18 21 18H3C1.45713 18 0 16.8638 0 15.2222V2.77778Z"
          fill="black"/>
</svg>
