<svg width="24" height="24" viewBox="0 0 24 24" fill="none" xmlns="http://www.w3.org/2000/svg">
    <path fill-rule="evenodd" clip-rule="evenodd"
          d="M3.2 2C2.53726 2 2 2.53726 2 3.2V20.8C2 21.4627 2.53726 22 3.2 22H20.8C21.4627 22 22 21.4627 22 20.8V3.2C22 2.53726 21.4627 2 20.8 2H3.2ZM0 3.2C0 1.43269 1.43269 0 3.2 0H20.8C22.5673 0 24 1.43269 24 3.2V20.8C24 22.5673 22.5673 24 20.8 24H3.2C1.43269 24 0 22.5673 0 20.8V3.2ZM12.4142 8L9.41421 11H18V13H9.41421L12.4142 16L11 17.4142L5.58579 12L11 6.58579L12.4142 8Z"
          fill="black"/>
</svg>
