<svg width="24" height="24" viewBox="0 0 24 24" fill="none" xmlns="http://www.w3.org/2000/svg">
    <path fill-rule="evenodd" clip-rule="evenodd"
          d="M12 2C6.47715 2 2 6.47715 2 12C2 17.5228 6.47715 22 12 22C17.5228 22 22 17.5228 22 12C22 6.47715 17.5228 2 12 2ZM0 12C0 5.37258 5.37258 0 12 0C18.6274 0 24 5.37258 24 12C24 18.6274 18.6274 24 12 24C5.37258 24 0 18.6274 0 12Z"
          fill="black"/>
    <path d="M7.5 11C8.32843 11 9 10.3284 9 9.5C9 8.67157 8.32843 8 7.5 8C6.67157 8 6 8.67157 6 9.5C6 10.3284 6.67157 11 7.5 11Z"
          fill="black"/>
    <path d="M16.5 11C17.3284 11 18 10.3284 18 9.5C18 8.67157 17.3284 8 16.5 8C15.6716 8 15 8.67157 15 9.5C15 10.3284 15.6716 11 16.5 11Z"
          fill="black"/>
    <path fill-rule="evenodd" clip-rule="evenodd"
          d="M7.4453 15.1679C7.90483 14.8616 8.5257 14.9858 8.83205 15.4453C9.57928 16.5662 11.0406 17 12 17C12.7991 17 13.3869 16.8868 13.8597 16.6605C14.3215 16.4395 14.7484 16.0747 15.1679 15.4453C15.4743 14.9858 16.0952 14.8616 16.5547 15.1679C17.0142 15.4743 17.1384 16.0952 16.8321 16.5547C16.2516 17.4253 15.5671 18.0605 14.7232 18.4645C13.8902 18.8632 12.9779 19 12 19C10.6578 19 8.42072 18.4338 7.16795 16.5547C6.8616 16.0952 6.98577 15.4743 7.4453 15.1679Z"
          fill="black"/>
</svg>
