<svg width="12" height="12" viewBox="0 0 12 12" fill="none" xmlns="http://www.w3.org/2000/svg">
    <path fill-rule="evenodd" clip-rule="evenodd"
          d="M6 12C9.31371 12 12 9.31371 12 6C12 2.68629 9.31371 0 6 0C2.68629 0 0 2.68629 0 6C0 9.31371 2.68629 12 6 12ZM6.04099 7.39522C5.71503 7.39522 5.44472 7.12491 5.44472 6.79895V6.63199C5.44472 5.72069 6.10456 5.26739 6.36568 5.08801L6.37491 5.08167C6.66907 4.88291 6.76447 4.74777 6.76447 4.54106C6.76447 4.14354 6.43851 3.81755 6.04099 3.81755C5.64348 3.81755 5.31751 4.14354 5.31751 4.54106C5.31751 4.86702 5.0472 5.13733 4.72124 5.13733C4.39531 5.13733 4.125 4.86702 4.125 4.54106C4.125 3.48367 4.9836 2.625 6.04099 2.625C7.09838 2.625 7.95702 3.48367 7.95702 4.54106C7.95702 5.44739 7.28919 5.90056 7.04273 6.06752C6.73267 6.27423 6.63727 6.40938 6.63727 6.63199V6.79895C6.63727 7.13286 6.36696 7.39522 6.04099 7.39522ZM6.0411 9.375C5.70718 9.375 5.44482 9.10469 5.44482 8.77873C5.44482 8.45277 5.71513 8.18246 6.0411 8.18246C6.36706 8.18246 6.63737 8.45277 6.63737 8.77873C6.63737 9.10469 6.37501 9.375 6.0411 9.375Z"
          fill="#B0BBC1"/>
</svg>
