<svg width="495" height="148" viewBox="0 0 495 148" fill="none" xmlns="http://www.w3.org/2000/svg">
<path d="M404.845 37.4147H389.101C388.134 37.4147 387.305 38.0362 386.96 38.9339L369.559 86.4422C369.075 88.2376 366.659 88.3067 366.037 86.5803V86.4422L348.636 38.9339C348.291 38.0362 347.462 37.4147 346.495 37.4147H330.751C329.163 37.4147 328.058 39.0029 328.61 40.5221L356.715 112.751C357.336 114.271 357.336 115.928 356.784 117.447L354.16 124.905C352.157 130.498 345.045 130.015 340.764 128.288C339.59 127.805 338.209 128.426 337.794 129.6L333.582 141.339C333.237 142.375 333.582 143.549 334.618 144.101C338.899 146.449 342.973 147.278 346.357 147.278C356.024 147.278 366.313 144.585 371.699 130.912C372.252 129.738 377.569 115.652 377.569 115.652L406.985 40.5221C407.538 39.0029 406.502 37.4147 404.845 37.4147V37.4147ZM245.471 99.9766C245.126 98.8717 244.021 98.2503 242.916 98.4574C238.566 99.217 236.08 96.8692 234.353 94.9357C232.696 93.1403 204.246 54.3327 204.246 54.3327L245.264 10.4841C246.645 9.03402 245.609 6.68622 243.606 6.68622H223.788C223.167 6.68622 222.545 6.96243 222.131 7.37675L179.042 53.435C177.661 54.9541 175.106 53.9183 175.106 51.8468V9.03401C175.106 7.79106 174.07 6.75527 172.827 6.75527H157.429C156.186 6.75527 155.15 7.79106 155.15 9.03401V114.616C155.15 115.859 156.186 116.895 157.429 116.895H172.827C174.07 116.895 175.106 115.859 175.106 114.616V87.8233C175.106 86.097 175.797 84.3706 176.97 83.1277L190.436 68.9719C202.106 85.3374 212.947 100.736 218.886 108.332C223.857 114.685 228.139 117.516 234.768 117.516C241.397 117.516 245.195 115.652 248.302 112.82C248.924 112.268 249.131 111.301 248.854 110.473L245.471 99.9075V99.9766ZM326.608 62.8952C325.434 59.0973 323.708 55.5066 321.291 51.9849C314.178 41.5579 301.887 35.4812 289.665 35.4812C268.258 35.4812 250.374 53.8493 250.374 76.4986C250.374 99.1479 268.327 117.516 289.665 117.516C303.751 117.516 314.731 111.232 320.946 104.189C321.774 103.222 321.705 101.772 320.738 100.943L310.173 91.7593C309.207 90.8616 307.618 91.0688 306.859 92.1046C306.859 92.1046 306.79 92.1736 306.721 92.2427C303.751 95.6953 297.744 99.3551 289.596 99.3551C282.138 99.3551 274.887 94.4523 271.366 87.2709C270.606 85.7517 271.711 84.0254 273.437 84.0254H324.191C326.125 84.0254 327.782 82.5062 327.989 80.5727C328.196 78.5702 328.196 76.4986 328.196 74.358C328.196 74.2199 328.196 74.1508 328.196 74.0127C328.196 70.2148 327.644 66.555 326.608 63.0333C326.608 63.0333 326.608 62.8952 326.608 62.8262V62.8952ZM305.133 69.3862H273.299C271.642 69.3862 270.537 67.6599 271.228 66.1407C274.611 59.0973 281.586 54.1255 289.665 54.1255C298.987 54.1255 304.649 60.1331 307.204 66.2097C307.826 67.7289 306.721 69.3862 305.133 69.3862V69.3862ZM455.599 34.8598C448.003 34.8598 441.098 37.6219 435.85 41.9722C434.33 43.2152 432.121 42.1794 432.121 40.2459V39.6935C432.121 38.4505 431.085 37.4147 429.842 37.4147H416.722C415.479 37.4147 414.443 38.4505 414.443 39.6935V145.275C414.443 146.518 415.479 147.554 416.722 147.554H431.568C432.811 147.554 433.847 146.518 433.847 145.275V113.304C433.847 111.439 435.919 110.334 437.438 111.439C442.41 115.099 448.901 117.309 455.668 117.309C479.353 117.309 494.682 98.8027 494.682 76.0152C494.682 53.2278 479.008 34.8598 455.668 34.8598H455.599ZM454.908 98.1122C443.583 98.1122 434.33 88.2376 434.33 75.9462C434.33 63.6548 443.514 53.7802 454.908 53.7802C466.302 53.7802 475.348 63.6548 475.348 75.9462C475.348 88.2376 466.164 98.1122 454.908 98.1122Z" fill="white"/>
<path d="M95.5572 9.72452C66.624 -8.71259 28.1616 -0.150032 9.72452 28.7831C-8.71258 57.7162 -0.150032 96.1787 28.7831 114.616C57.7162 133.053 96.1787 124.49 114.616 95.5572C133.053 66.6241 124.49 28.1616 95.5572 9.72452ZM84.3016 76.2224C76.4986 88.4448 60.3402 92.0355 48.1179 84.2325C35.8955 76.4296 32.3048 60.2712 40.1078 48.0488C47.9107 35.8265 64.0691 32.2357 76.2914 40.0387C88.5138 47.8417 92.1045 64.0001 84.3016 76.2224Z" fill="white"/>
<path d="M27.4711 94.5905C26.2282 94.5905 24.9852 94.038 24.1566 93.0022C7.03147 72.0102 10.2079 41.0055 31.2 23.8804C44.6653 12.901 63.1714 9.86264 79.4679 15.9393C81.6776 16.7679 82.8515 19.2538 82.0228 21.4635C81.1942 23.6732 78.7083 24.8471 76.4986 24.0185C63.0333 19.0467 47.7726 21.5326 36.7242 30.5785C19.3919 44.6653 16.837 70.2839 30.9237 87.5471C32.4429 89.4115 32.1667 92.1045 30.3023 93.6237C29.4736 94.2452 28.5069 94.5905 27.6092 94.5905H27.4711Z" fill="#30B0FF"/>
<path d="M61.7904 111.577C60.2712 111.577 58.752 111.508 57.2329 111.37C50.6729 110.749 44.3891 108.884 38.5886 105.777C36.517 104.672 35.6884 102.048 36.7932 99.9076C37.8981 97.836 40.5221 97.0073 42.6627 98.1122C47.4274 100.667 52.6063 102.186 58.0615 102.739C68.8338 103.775 79.3298 100.46 87.6852 93.5547C89.5496 92.0355 92.2426 92.3118 93.7618 94.1071C95.281 95.9716 95.0048 98.6646 93.2094 100.184C84.3016 107.572 73.3222 111.577 61.8594 111.577H61.7904Z" fill="#27A4F2"/>
<path d="M100.736 88.6519C99.9766 88.6519 99.217 88.4447 98.5265 88.0304C96.4549 86.8565 95.7644 84.1635 97.0073 82.0919C101.081 75.1175 103.015 67.1765 102.532 59.0973C102.393 56.7495 104.189 54.6779 106.537 54.5398C108.884 54.4017 110.956 56.1971 111.094 58.5449C111.716 68.2813 109.368 77.9487 104.396 86.4422C103.567 87.8233 102.117 88.5829 100.667 88.5829L100.736 88.6519Z" fill="#1696E6"/>
<path d="M103.084 49.499C101.358 49.499 99.7694 48.4632 99.0789 46.8059C98.5955 45.563 98.0431 44.32 97.4216 43.1461C96.3168 41.0055 97.1454 38.4505 99.2861 37.3457C101.358 36.2408 103.982 37.0695 105.086 39.2101C105.846 40.6602 106.537 42.1103 107.089 43.6295C107.987 45.8392 106.882 48.3251 104.672 49.2228C104.12 49.4299 103.636 49.499 103.084 49.499Z" fill="#008CE3"/>
<path d="M91.414 32.7882C89.6877 32.7882 88.0304 31.7524 87.409 30.026C87.409 29.8879 87.3399 29.7498 87.2709 29.6808C86.5803 27.333 87.8233 24.9161 90.102 24.2256C92.3808 23.5351 94.8667 24.8471 95.6262 27.1258C96.3168 29.2665 95.1429 31.6833 93.0022 32.5119C92.5189 32.7191 91.9664 32.7882 91.4831 32.7882H91.414Z" fill="#0078C2"/>
</svg>
