<svg width="340" height="141" viewBox="0 0 340 141" fill="none" xmlns="http://www.w3.org/2000/svg">
<path d="M249.695 30.7285H233.951C232.984 30.7285 232.156 31.35 231.81 32.2477L214.409 79.756C213.926 81.5514 211.509 81.6204 210.887 79.8941V79.756L193.486 32.2477C193.141 31.35 192.312 30.7285 191.345 30.7285H175.601C174.013 30.7285 172.908 32.3167 173.461 33.8359L201.565 106.065C202.187 107.584 202.187 109.242 201.634 110.761L199.01 118.218C197.008 123.812 189.895 123.328 185.614 121.602C184.44 121.119 183.059 121.74 182.645 122.914L178.432 134.653C178.087 135.689 178.432 136.863 179.468 137.415C183.75 139.763 187.824 140.592 191.207 140.592C200.875 140.592 211.164 137.898 216.55 124.226C217.102 123.052 222.419 108.965 222.419 108.965L251.836 33.8359C252.388 32.3167 251.352 30.7285 249.695 30.7285ZM90.3211 93.2904C89.9758 92.1855 88.871 91.564 87.7661 91.7712C83.4158 92.5308 80.9299 90.183 79.2036 88.2495C77.5463 86.4541 49.0965 47.6464 49.0965 47.6464L90.1139 3.79791C91.495 2.3478 90.4592 0 88.4567 0H68.6385C68.017 0 67.3955 0.276211 66.9812 0.690528L23.8923 46.7488C22.5112 48.2679 19.9563 47.2321 19.9563 45.1605V2.34779C19.9563 1.10484 18.9205 0.0690511 17.6775 0.0690511H2.27874C1.03579 0.0690511 0 1.10484 0 2.34779V107.93C0 109.173 1.03579 110.208 2.27874 110.208H17.6775C18.9205 110.208 19.9563 109.173 19.9563 107.93V81.1371C19.9563 79.4107 20.6468 77.6844 21.8207 76.4415L35.286 62.2856C46.9559 78.6512 57.7972 94.0499 63.7358 101.646C68.7076 107.999 72.9888 110.83 79.6179 110.83C86.247 110.83 90.0449 108.965 93.1523 106.134C93.7737 105.582 93.9809 104.615 93.7047 103.786L90.3211 93.2213V93.2904ZM171.458 56.209C170.284 52.4111 168.558 48.8203 166.141 45.2986C159.029 34.8717 146.737 28.795 134.515 28.795C113.109 28.795 95.2238 47.1631 95.2238 69.8124C95.2238 92.4617 113.178 110.83 134.515 110.83C148.602 110.83 159.581 104.546 165.796 97.5026C166.624 96.5358 166.555 95.0857 165.589 94.2571L155.024 85.0731C154.057 84.1754 152.469 84.3825 151.709 85.4183C151.709 85.4183 151.64 85.4874 151.571 85.5564C148.602 89.0091 142.594 92.6689 134.446 92.6689C126.988 92.6689 119.738 87.7661 116.216 80.5846C115.456 79.0655 116.561 77.3392 118.287 77.3392H169.041C170.975 77.3392 172.632 75.82 172.839 73.8865C173.046 71.884 173.046 69.8124 173.046 67.6718C173.046 67.5337 173.046 67.4646 173.046 67.3265C173.046 63.5286 172.494 59.8688 171.458 56.3471C171.458 56.3471 171.458 56.209 171.458 56.1399V56.209ZM149.983 62.7H118.149C116.492 62.7 115.387 60.9736 116.078 59.4545C119.461 52.4111 126.436 47.4393 134.515 47.4393C143.837 47.4393 149.499 53.4469 152.054 59.5235C152.676 61.0427 151.571 62.7 149.983 62.7ZM300.449 28.1735C292.853 28.1735 285.948 30.9357 280.7 35.286C279.181 36.5289 276.971 35.4931 276.971 33.5597V33.0072C276.971 31.7643 275.935 30.7285 274.692 30.7285H261.572C260.329 30.7285 259.293 31.7643 259.293 33.0072V138.589C259.293 139.832 260.329 140.868 261.572 140.868H276.418C277.661 140.868 278.697 139.832 278.697 138.589V106.618C278.697 104.753 280.769 103.648 282.288 104.753C287.26 108.413 293.751 110.623 300.518 110.623C324.203 110.623 339.533 92.1165 339.533 69.329C339.533 46.5416 323.858 28.1735 300.518 28.1735H300.449ZM299.758 91.4259C288.434 91.4259 279.181 81.5514 279.181 69.26C279.181 56.9686 288.365 47.094 299.758 47.094C311.152 47.094 320.198 56.9686 320.198 69.26C320.198 81.5514 311.014 91.4259 299.758 91.4259Z" fill="white"/>
</svg>
