<svg width="24" height="16" viewBox="0 0 24 16" fill="none" xmlns="http://www.w3.org/2000/svg">
    <path d="M4.9133 3.37401C8.82718 -0.458005 15.1728 -0.458005 19.0867 3.37401L19.5578 3.8352C19.7535 4.0268 19.7535 4.33745 19.5578 4.52905L17.9464 6.10669C17.8486 6.20249 17.6899 6.20249 17.5921 6.10669L16.9439 5.47204C14.2135 2.79873 9.78657 2.79873 7.05614 5.47204L6.36196 6.1517C6.26412 6.2475 6.10548 6.2475 6.00763 6.1517L4.39629 4.57406C4.20059 4.38246 4.20059 4.07181 4.39629 3.88021L4.9133 3.37401ZM22.4191 6.63674L23.8532 8.04084C24.0489 8.23244 24.0489 8.54309 23.8532 8.73469L17.3868 15.066C17.1911 15.2576 16.8738 15.2576 16.6781 15.066L12.0886 10.5725C12.0397 10.5246 11.9604 10.5246 11.9115 10.5725L7.32207 15.066C7.12638 15.2576 6.80909 15.2576 6.6134 15.066L0.146771 8.73461C-0.0489235 8.54301 -0.0489235 8.23236 0.146771 8.04076L1.58087 6.63666C1.77656 6.44505 2.09385 6.44505 2.28954 6.63666L6.8791 11.1302C6.92802 11.1781 7.00734 11.1781 7.05626 11.1302L11.6456 6.63666C11.8413 6.44505 12.1586 6.44504 12.3543 6.63664L16.9438 11.1302C16.9927 11.1781 17.0721 11.1781 17.121 11.1302L21.7105 6.63674C21.9062 6.44513 22.2234 6.44513 22.4191 6.63674Z"
          fill="#3B99FC"/>
</svg>
